<svg width="48" height="48" viewBox="0 0 48 48" fill="none" xmlns="http://www.w3.org/2000/svg">
  <path d="M32 22C34.2091 22 36 20.2091 36 18C36 15.7909 34.2091 14 32 14C29.7909 14 28 15.7909 28 18C28 20.2091 29.7909 22 32 22Z" fill="#0073e6"/>
  <path d="M16 22C18.2091 22 20 20.2091 20 18C20 15.7909 18.2091 14 16 14C13.7909 14 12 15.7909 12 18C12 20.2091 13.7909 22 16 22Z" fill="#0073e6"/>
  <path d="M36 24H28C26.9 24 26 24.9 26 26V32C26 32.6 26.4 33 27 33H37C37.6 33 38 32.6 38 32V26C38 24.9 37.1 24 36 24Z" fill="#0073e6"/>
  <path d="M20 24H12C10.9 24 10 24.9 10 26V32C10 32.6 10.4 33 11 33H21C21.6 33 22 32.6 22 32V26C22 24.9 21.1 24 20 24Z" fill="#0073e6"/>
</svg> 
